<?xml version="1.0" encoding="UTF-8" standalone="no"?>
<!DOCTYPE svg PUBLIC "-//W3C//DTD SVG 1.1//EN"
 "http://www.w3.org/Graphics/SVG/1.1/DTD/svg11.dtd">
<!-- Generated by graphviz version 2.43.0 (0)
 -->
<!-- Title: machine_ai Pages: 1 -->
<svg width="829pt" height="258pt"
 viewBox="0.00 0.00 829.00 258.00" xmlns="http://www.w3.org/2000/svg" xmlns:xlink="http://www.w3.org/1999/xlink">
<g id="graph0" class="graph" transform="scale(1 1) rotate(0) translate(4 254)">
<title>machine_ai</title>
<polygon fill="white" stroke="transparent" points="-4,4 -4,-254 825,-254 825,4 -4,4"/>
<g id="clust1" class="cluster">
<title>cluster_domain</title>
<polygon fill="none" stroke="black" stroke-dasharray="5,2" points="8,-8 8,-171 813,-171 813,-8 8,-8"/>
<text text-anchor="middle" x="410.5" y="-159" font-family="Times,serif" font-size="10.00">10.10.20.0/24 (machine.ai Domain)</text>
</g>
<!-- pf -->
<g id="node1" class="node">
<title>pf</title>
<polygon fill="lightblue" stroke="black" points="439.5,-250 346.5,-250 346.5,-212 439.5,-212 439.5,-250"/>
<text text-anchor="middle" x="393" y="-234.8" font-family="Times,serif" font-size="14.00">pfSense</text>
<text text-anchor="middle" x="393" y="-219.8" font-family="Times,serif" font-size="14.00">10.10.10.1</text>
</g>
<!-- rv -->
<g id="node2" class="node">
<title>rv</title>
<polygon fill="lightyellow" stroke="black" points="465.5,-144 320.5,-144 320.5,-106 465.5,-106 465.5,-144"/>
<text text-anchor="middle" x="393" y="-128.8" font-family="Times,serif" font-size="14.00">Cisco RV340</text>
<text text-anchor="middle" x="393" y="-113.8" font-family="Times,serif" font-size="14.00">GW: 10.10.20.254</text>
</g>
<!-- pf&#45;&gt;rv -->
<g id="edge1" class="edge">
<title>pf&#45;&gt;rv</title>
<path fill="none" stroke="black" d="M393,-211.88C393,-196.03 393,-172.72 393,-154.38"/>
<polygon fill="black" stroke="black" points="396.5,-154.26 393,-144.26 389.5,-154.26 396.5,-154.26"/>
<text text-anchor="middle" x="462.5" y="-182.8" font-family="Times,serif" font-size="14.00">10.10.10.0/24 WAN</text>
</g>
<!-- ann -->
<g id="node3" class="node">
<title>ann</title>
<polygon fill="white" stroke="black" points="108.5,-69 15.5,-69 15.5,-16 108.5,-16 108.5,-69"/>
<text text-anchor="middle" x="62" y="-53.8" font-family="Times,serif" font-size="14.00">ANN</text>
<text text-anchor="middle" x="62" y="-38.8" font-family="Times,serif" font-size="14.00">DC1, DNS</text>
<text text-anchor="middle" x="62" y="-23.8" font-family="Times,serif" font-size="14.00">10.10.20.1</text>
</g>
<!-- rv&#45;&gt;ann -->
<g id="edge2" class="edge">
<title>rv&#45;&gt;ann</title>
<path fill="none" stroke="black" d="M320.33,-114.14C266.62,-105.78 191.83,-91.91 118.59,-68.89"/>
<polygon fill="black" stroke="black" points="119.33,-65.45 108.74,-65.73 117.2,-72.11 119.33,-65.45"/>
</g>
<!-- gan -->
<g id="node4" class="node">
<title>gan</title>
<polygon fill="white" stroke="black" points="227,-69 127,-69 127,-16 227,-16 227,-69"/>
<text text-anchor="middle" x="177" y="-53.8" font-family="Times,serif" font-size="14.00">GAN</text>
<text text-anchor="middle" x="177" y="-38.8" font-family="Times,serif" font-size="14.00">DC2, DHCP</text>
<text text-anchor="middle" x="177" y="-23.8" font-family="Times,serif" font-size="14.00">10.10.20.2</text>
</g>
<!-- rv&#45;&gt;gan -->
<g id="edge3" class="edge">
<title>rv&#45;&gt;gan</title>
<path fill="none" stroke="black" d="M338.52,-105.98C310.41,-96.43 275.42,-84.17 236.54,-69.12"/>
<polygon fill="black" stroke="black" points="237.7,-65.82 227.11,-65.45 235.16,-72.34 237.7,-65.82"/>
</g>
<!-- nlg -->
<g id="node5" class="node">
<title>nlg</title>
<polygon fill="white" stroke="black" points="393,-69 245,-69 245,-16 393,-16 393,-69"/>
<text text-anchor="middle" x="319" y="-53.8" font-family="Times,serif" font-size="14.00">NLG</text>
<text text-anchor="middle" x="319" y="-38.8" font-family="Times,serif" font-size="14.00">File Server, FSRM</text>
<text text-anchor="middle" x="319" y="-23.8" font-family="Times,serif" font-size="14.00">10.10.20.3</text>
</g>
<!-- rv&#45;&gt;nlg -->
<g id="edge4" class="edge">
<title>rv&#45;&gt;nlg</title>
<path fill="none" stroke="black" d="M376.21,-105.73C368.26,-97.08 358.51,-86.48 349.33,-76.49"/>
<polygon fill="black" stroke="black" points="351.8,-74.01 342.46,-69.02 346.65,-78.75 351.8,-74.01"/>
</g>
<!-- sql -->
<g id="node6" class="node">
<title>sql</title>
<polygon fill="white" stroke="black" points="521,-69 411,-69 411,-16 521,-16 521,-69"/>
<text text-anchor="middle" x="466" y="-53.8" font-family="Times,serif" font-size="14.00">SQL01</text>
<text text-anchor="middle" x="466" y="-38.8" font-family="Times,serif" font-size="14.00">SQL 2019/22</text>
<text text-anchor="middle" x="466" y="-23.8" font-family="Times,serif" font-size="14.00">10.10.20.4</text>
</g>
<!-- rv&#45;&gt;sql -->
<g id="edge5" class="edge">
<title>rv&#45;&gt;sql</title>
<path fill="none" stroke="black" d="M409.56,-105.73C417.41,-97.08 427.02,-86.48 436.08,-76.49"/>
<polygon fill="black" stroke="black" points="438.74,-78.78 442.86,-69.02 433.55,-74.07 438.74,-78.78"/>
</g>
<!-- spse -->
<g id="node7" class="node">
<title>spse</title>
<polygon fill="white" stroke="black" points="659,-69 539,-69 539,-16 659,-16 659,-69"/>
<text text-anchor="middle" x="599" y="-53.8" font-family="Times,serif" font-size="14.00">SPSE01</text>
<text text-anchor="middle" x="599" y="-38.8" font-family="Times,serif" font-size="14.00">SharePoint SE</text>
<text text-anchor="middle" x="599" y="-23.8" font-family="Times,serif" font-size="14.00">10.10.20.5</text>
</g>
<!-- rv&#45;&gt;spse -->
<g id="edge6" class="edge">
<title>rv&#45;&gt;spse</title>
<path fill="none" stroke="black" d="M439.23,-105.93C465.78,-95.56 499.64,-82.33 529.35,-70.72"/>
<polygon fill="black" stroke="black" points="530.8,-73.91 538.84,-67.01 528.25,-67.39 530.8,-73.91"/>
</g>
<!-- exch -->
<g id="node8" class="node">
<title>exch</title>
<polygon fill="white" stroke="black" points="804.5,-69 677.5,-69 677.5,-16 804.5,-16 804.5,-69"/>
<text text-anchor="middle" x="741" y="-53.8" font-family="Times,serif" font-size="14.00">EXCH01</text>
<text text-anchor="middle" x="741" y="-38.8" font-family="Times,serif" font-size="14.00">Exchange 2019</text>
<text text-anchor="middle" x="741" y="-23.8" font-family="Times,serif" font-size="14.00">10.10.20.50</text>
</g>
<!-- rv&#45;&gt;exch -->
<g id="edge7" class="edge">
<title>rv&#45;&gt;exch</title>
<path fill="none" stroke="black" d="M465.73,-112.29C519.14,-103.04 593.53,-88.8 667.5,-68.98"/>
<polygon fill="black" stroke="black" points="668.73,-72.27 677.46,-66.28 666.89,-65.52 668.73,-72.27"/>
</g>
</g>
</svg>
